<?xml version="1.0" encoding="UTF-8"?>
<svg width="176px" height="380px" viewBox="0 0 176 380" version="1.1" xmlns="http://www.w3.org/2000/svg" xmlns:xlink="http://www.w3.org/1999/xlink">
    <!-- Generator: Sketch 52.4 (67378) - http://www.bohemiancoding.com/sketch -->
    <title>Rectangle 3</title>
    <desc>Created with Sketch.</desc>
    <defs>
        <linearGradient x1="77.9606906%" y1="20.2678683%" x2="-40.7407102%" y2="66.114021%" id="linearGradient-1">
            <stop stop-color="#DFF0F7" offset="0%"></stop>
            <stop stop-color="#10A2EC" offset="37.6806358%"></stop>
            <stop stop-color="#55AEF2" offset="100%"></stop>
        </linearGradient>
    </defs>
    <g id="Landing-Page-Official" stroke="none" stroke-width="1" fill="none" fill-rule="evenodd">
        <g id="Landing-page---Home" transform="translate(0.000000, -687.000000)" fill="url(#linearGradient-1)">
            <path d="M-299.25,1182.37785 C-257.828093,977.592774 -222.698514,875.200237 -193.861263,875.200237 C-172.690838,875.200237 -238.128924,757.166159 -179.687026,802.068842 C-166.439414,812.247384 -112.263154,796.492704 -17.1582457,754.804801 C-20.6745983,708.103245 -15.1404195,685.699352 -0.55570919,687.59312 C38.5088121,692.665496 77.1654211,694.551821 88.8030114,700.621642 C94.7041786,703.699516 134.910956,711.290618 162.852227,748.839378 C190.793497,786.388137 166.19658,837.543663 148.861119,854.087866 C63.5997353,935.457587 64.1592367,938.891661 50.9573329,959.726914 C-31.254394,1089.47351 -10.3582678,1169.89256 -17.1582457,1182.37785 C-36.0365826,1217.03994 -70.6209335,1177.23813 -79.9743593,1182.37785 C-105.463127,1196.38395 -89.644266,1212.35452 -115.641301,1233.96433 C-136.959111,1251.68457 -150.838184,1245.52918 -157.278519,1215.49816 L-243.08216,1271.44866 L-299.25,1182.37785 Z" id="Rectangle-3"></path>
        </g>
    </g>
</svg>