<?xml version="1.0" encoding="UTF-8"?>
<svg width="1440px" height="842px" viewBox="0 0 1440 842" version="1.1" xmlns="http://www.w3.org/2000/svg" xmlns:xlink="http://www.w3.org/1999/xlink">
    <!-- Generator: Sketch 52.4 (67378) - http://www.bohemiancoding.com/sketch -->
    <title>Rectangle 3 Copy</title>
    <desc>Created with Sketch.</desc>
    <defs>
        <linearGradient x1="77.9606906%" y1="20.2678683%" x2="-40.7407102%" y2="66.114021%" id="linearGradient-1">
            <stop stop-color="#DFF0F7" offset="0%"></stop>
            <stop stop-color="#10A2EC" offset="37.6806358%"></stop>
            <stop stop-color="#55AEF2" offset="100%"></stop>
        </linearGradient>
    </defs>
    <g id="Landing-Page-Official" stroke="none" stroke-width="1" fill="none" fill-rule="evenodd">
        <g id="Carreer" transform="translate(0.000000, -1506.000000)" fill="url(#linearGradient-1)">
            <path d="M96.9045848,2347.46805 C31.0525088,2340.05076 -86.6209373,2349.30771 24.3280056,2182.9323 C74.4036434,2107.84051 447.68026,1864.6744 478.588731,1836.51384 C501.550985,1815.59305 637.52016,1658.40283 723.818114,1658.40283 C788.503903,1658.40283 838.371692,1695.0182 859.36369,1701.21918 C947.675282,1727.3062 1075.63736,1649.95958 1100.77674,1638.48044 C1125.91612,1627.00129 1190.02495,1597.54145 1248.52733,1576.93169 C1286.11312,1563.69061 1356.03644,1536.72505 1406.27491,1565.486 C1533.77862,1638.48044 1519.4415,1506.27974 1545.16034,1506.27974 C1570.87917,1506.27974 1568.99607,1670.8405 1545.16034,1733.57924 C1521.3246,1796.31799 1458.62986,1720.73459 1379.49708,1778.62422 C1300.36429,1836.51384 1296.44214,1893.80095 1267.36696,1929.83859 C1227.84399,1978.82588 1227.84399,1978.82588 1181.29108,2008.72478 C1159.08783,2022.98495 1088.98593,2073.94418 997.01683,2023.39366 C926.898208,1984.85317 751.271923,2043.16792 470.137974,2198.33788 C424.160783,2215.6528 362.19892,2220.27652 284.252386,2212.20904 C167.332585,2200.10782 162.756661,2354.88534 96.9045848,2347.46805 Z" id="Rectangle-3-Copy" transform="translate(771.187500, 1927.003130) scale(-1, 1) translate(-771.187500, -1927.003130) "></path>
        </g>
    </g>
</svg>