<?xml version="1.0" encoding="UTF-8"?>
<svg width="894px" height="944px" viewBox="0 0 894 944" version="1.1" xmlns="http://www.w3.org/2000/svg" xmlns:xlink="http://www.w3.org/1999/xlink">
    <!-- Generator: Sketch 52.4 (67378) - http://www.bohemiancoding.com/sketch -->
    <title>Group 2</title>
    <desc>Created with Sketch.</desc>
    <defs>
        <linearGradient x1="61.7914836%" y1="90.9851901%" x2="-5.41511484%" y2="-20.1283764%" id="linearGradient-1">
            <stop stop-color="#DFF0F7" offset="0%"></stop>
            <stop stop-color="#10A2EC" offset="37.6806358%"></stop>
            <stop stop-color="#47AFFF" offset="100%"></stop>
        </linearGradient>
        <linearGradient x1="81.731353%" y1="97.2023015%" x2="11.0493722%" y2="5.67351129%" id="linearGradient-2">
            <stop stop-color="#DAF5FF" offset="0%"></stop>
            <stop stop-color="#10A2EC" stop-opacity="0.969316123" offset="41.8729798%"></stop>
            <stop stop-color="#123BD8" offset="100%"></stop>
        </linearGradient>
    </defs>
    <g id="Landing-Page-Official" stroke="none" stroke-width="1" fill="none" fill-rule="evenodd">
        <g id="Landing-page---Home" transform="translate(-546.000000, 0.000000)">
            <g id="Group-2" transform="translate(546.000000, -539.000000)">
                <path d="M864.451579,1436.83351 C1090.18048,1328.1446 1337.25,936.519815 1337.25,683.508359 C1337.25,430.496903 1132.28554,225.390593 879.449065,225.390593 C715.617725,225.390593 244.991667,37.6256077 164.099609,167.092603 C120.153143,237.42852 -30.6518002,478.064037 6.61499627,610.573964 C27.1269028,683.508359 91.7955017,726.369388 141.741326,745.667878 C244.557857,785.395001 588.217426,793.604429 571.264925,860.696485 C528.714733,1029.09523 466.543774,1230.35187 491.578262,1321.24152 C555.851512,1554.59055 776.337395,1479.26066 864.451579,1436.83351 Z" id="Oval" fill="url(#linearGradient-1)"></path>
                <path d="M1252.43139,1123.40382 C1492.77461,1007.78758 1554.375,866.942607 1554.375,597.805373 C1554.375,328.668138 1336.14058,110.489301 1066.93477,110.489301 C892.496541,110.489301 391.400858,-89.2429549 305.271626,48.4756677 C268.781439,106.82262 49.1866083,305.224355 12.2337396,470.882799 C-0.629131855,528.546611 9.95351653,578.514759 22.2372234,597.805373 C67.3610125,668.668801 173.64989,691.487221 266.366275,674.189924 C382.313902,652.558574 450.182173,630.468222 503.101607,707.368051 C538.346307,758.583855 609.486579,1052.53402 671.535459,1123.40382 C795.652919,1265.16593 941.707929,1233.61577 1066.93477,1233.61577 C1359.87553,1233.61577 1158.61245,1168.53509 1252.43139,1123.40382 Z" id="Oval" fill="url(#linearGradient-2)"></path>
            </g>
        </g>
    </g>
</svg>